<?xml version="1.0" standalone="no"?>
<!DOCTYPE svg PUBLIC "-//W3C//DTD SVG 20010904//EN"
 "http://www.w3.org/TR/2001/REC-SVG-20010904/DTD/svg10.dtd">
<svg version="1.0" xmlns="http://www.w3.org/2000/svg"
 width="512.000000pt" height="512.000000pt" viewBox="0 0 512.000000 512.000000"
 preserveAspectRatio="xMidYMid meet">
<metadata>
Created by potrace 1.11, written by Peter Selinger 2001-2013
</metadata>
<g transform="translate(0.000000,512.000000) scale(0.100000,-0.100000)"
fill="#000000" stroke="none">
<path d="M2365 5084 c-288 -30 -507 -81 -735 -170 -717 -284 -1289 -911 -1499
-1644 -72 -252 -96 -428 -96 -710 0 -228 8 -317 46 -505 131 -654 528 -1239
1094 -1611 322 -212 663 -338 1070 -396 118 -17 512 -17 630 0 596 85 1091
333 1495 748 391 402 620 874 702 1449 17 118 17 512 0 630 -82 575 -311 1047
-702 1449 -394 405 -880 653 -1450 741 -101 15 -467 28 -555 19z m-955 -2199
l0 -145 -80 0 -80 0 0 34 c0 18 -3 48 -6 65 l-6 31 -169 0 -169 0 0 -140 0
-140 180 0 180 0 0 -80 0 -80 -180 0 -180 0 0 -155 0 -155 175 0 175 0 0 65 0
65 80 0 80 0 0 -145 0 -145 -420 0 -420 0 0 64 0 64 46 7 c26 3 53 9 60 12 12
4 14 73 14 388 0 430 8 387 -77 400 l-43 7 0 64 0 64 420 0 420 0 0 -145z
m548 78 l-3 -68 -55 -10 -55 -10 -3 -280 c-1 -167 2 -300 8 -329 22 -103 88
-151 210 -151 96 1 153 29 190 95 l25 45 0 310 0 310 -55 10 -55 10 -3 68 -3
67 221 0 220 0 0 -68 0 -69 -57 -9 -58 -9 -5 -335 c-5 -316 -6 -338 -26 -381
-89 -192 -400 -267 -631 -154 -84 41 -133 93 -165 174 -21 53 -22 75 -26 378
l-4 322 -54 7 -54 6 0 69 0 69 220 0 221 0 -3 -67z m1152 3 l0 -64 -37 -6
c-81 -15 -73 27 -73 -397 l0 -379 149 0 148 0 7 38 c3 20 6 52 6 70 l0 32 80
0 80 0 0 -150 0 -150 -400 0 -400 0 0 64 0 64 46 7 c26 3 53 9 60 12 12 4 14
73 14 389 l0 383 -60 12 -60 12 0 63 0 64 220 0 220 0 0 -64z m1059 3 c150
-446 297 -857 309 -866 9 -7 28 -13 44 -13 28 0 28 0 28 -65 l0 -65 -180 0
-180 0 0 64 0 64 36 6 c28 6 34 11 29 24 -3 9 -13 43 -22 75 l-16 57 -177 0
-176 0 -23 -71 c-25 -77 -21 -89 27 -89 21 0 22 -4 22 -65 l0 -65 -180 0 -180
0 0 65 0 65 29 0 c16 0 36 6 43 13 7 7 85 219 172 470 l159 457 107 0 108 0
21 -61z"/>
<path d="M3977 2607 c-31 -100 -57 -185 -57 -189 0 -5 54 -8 120 -8 66 0 120
3 120 6 0 13 -112 359 -119 366 -3 4 -32 -75 -64 -175z"/>
</g>
</svg>
